<?xml version="1.0" encoding="UTF-8"?>
<svg width="42px" height="18px" viewBox="0 0 56 18" version="1.1" xmlns="http://www.w3.org/2000/svg" xmlns:xlink="http://www.w3.org/1999/xlink">
    <!-- Generator: Sketch 52.6 (67491) - http://www.bohemiancoding.com/sketch -->
    <title>pc管理端_logo_订货宝</title>
    <desc>Created with Sketch.</desc>
    <g id="设计效果-版本二" stroke="none" stroke-width="1" fill="none" fill-rule="evenodd">
        <g id="navbar规范" transform="translate(-70.000000, -100.000000)" fill="#FF6B40">
            <g id="navbar" transform="translate(54.438131, 80.495844)">
                <path d="M33.3437968,22.2194797 L32.5580968,22.2194797 C32.2785009,22.2195505 32.0523467,22.4460232 32.0523467,22.7253714 L32.0523467,36.0829794 C32.0523467,36.4588059 31.9029929,36.8192016 31.6371998,37.0849593 C31.3714067,37.350717 31.0111172,37.5 30.6352553,37.5 L28.218343,37.5 L28.218343,36.238633 L29.0235085,36.238633 C29.1576438,36.238633 29.2864703,36.1853328 29.3813206,36.0904471 C29.4761708,35.9955968 29.5296126,35.8669119 29.5296126,35.7327412 L29.5296126,22.7253714 C29.5296126,22.5912007 29.4761708,22.4625158 29.3813206,22.3676302 C29.2864703,22.2727799 29.1576438,22.2194797 29.0235085,22.2194797 L22.8745212,22.2194797 L22.8745212,20.9580773 L33.3437968,20.9580773 L33.3437968,22.2194797 Z M36.9304112,37.5 L36.9304112,36.238633 L39.4531453,36.238633 L39.4531453,37.5 L36.9304112,37.5 Z M49.8594234,37.5 L49.8594234,36.238633 L52.3821575,36.238633 L52.3821575,37.5 L49.8594234,37.5 Z M71.2502831,26.8079678 L64.1552705,26.8079678 L64.1552705,30.9109498 L71.2502831,30.9109498 L71.2502831,32.1723523 L64.1552705,32.1723523 L64.1552705,36.238633 L68.1446446,36.238633 C68.4667108,36.238633 68.727549,35.9775116 68.727549,35.65541 L68.727549,34.6463871 L71.2502831,34.6463871 L71.2502831,36.0941986 C71.2502831,36.8705906 70.6210153,37.4999646 69.8445172,37.5 L54.5371698,37.5 L54.5371698,36.238633 L61.6325364,36.238633 L61.6325364,32.1723523 L54.5371698,32.1723523 L54.5371698,30.9109498 L61.6325364,30.9109498 L61.6325364,26.8079678 L54.5371698,26.8079678 L54.5371698,25.5465653 L71.2502831,25.5465653 L71.2502831,26.8079678 Z M21.1268695,37.5 L18.6901377,37.5 C17.9175327,37.4999646 17.2914502,36.8737051 17.2914502,36.1011001 L17.2914502,25.5792674 C17.2914502,25.2998838 17.064942,25.0733757 16.7853461,25.0733757 L16,25.0733757 L16,23.8120087 L18.3970929,23.8120087 C18.7729548,23.8120087 19.1332442,23.9612917 19.3990373,24.2270494 C19.6648305,24.4927717 19.8141842,24.8532028 19.8141842,25.2290293 L19.8141842,35.7327412 C19.8141842,35.8669119 19.8672721,35.9955968 19.9624763,36.0904471 C20.0573265,36.1853328 20.1857991,36.238633 20.3199344,36.238633 L21.1268695,36.238633 L21.1268695,37.5 Z M52.3821575,34.6383885 L36.9304112,34.6383885 L36.9304112,22.7119579 C36.9304112,22.5813618 36.8783851,22.4560745 36.7860123,22.3637017 C36.6936395,22.2713642 36.5683522,22.2194797 36.4377561,22.2194797 L35.6690442,22.2194797 L35.6690442,20.9580773 L38.0537499,20.9580773 C38.8267088,20.9580773 39.4531453,21.5845845 39.4531453,22.3574373 L39.4531453,28.3670868 L50.9827621,28.3670868 C51.354023,28.3670868 51.7100655,28.5145294 51.9723194,28.7769603 C52.2349272,29.0393912 52.3821575,29.395292 52.3821575,29.7664468 L52.3821575,34.6383885 Z M49.8594234,33.3770215 L49.8594234,30.1209674 C49.8594234,29.9903713 49.8077512,29.865084 49.7153784,29.7727112 C49.6230056,29.6803737 49.4977183,29.6284892 49.3671222,29.6284892 L39.4531453,29.6284892 L39.4531453,33.3770215 L49.8594234,33.3770215 Z M44.2990032,22.5544286 L52.3821575,22.5544286 L52.3821575,23.8157956 L44.2990032,23.8157956 L44.2990032,25.0540871 C44.2990032,25.3260738 44.5194947,25.5465653 44.7913044,25.5465653 L52.3821575,25.5465653 L52.3821575,26.8079678 L43.1753106,26.8079678 C42.8044036,26.8079678 42.4483611,26.6605251 42.1861072,26.3980943 C41.9234994,26.1356634 41.7762691,25.7797271 41.7762691,25.4086077 L41.7762691,20.9580773 L44.2990032,20.9580773 L44.2990032,22.5544286 Z M57.0599039,23.8045764 L54.5371698,23.8045764 L54.5371698,22.3662853 C54.5371698,21.9930424 54.6858158,21.6350888 54.9498393,21.3713838 C55.2138628,21.1076788 55.5720287,20.9598822 55.9454132,20.9605193 C58.0448603,20.9641293 61.7510992,20.9704644 61.7510992,20.9704644 L61.7510992,20.5 L64.0363537,20.5 L64.0363537,20.9704644 C64.0363537,20.9704644 67.7429466,20.9641293 69.8423937,20.9605193 C70.2154242,20.9598822 70.5735902,21.1076788 70.8379676,21.3713838 C71.1019911,21.6350888 71.2502831,21.9930424 71.2502831,22.3662853 L71.2502831,23.8045764 L68.727549,23.8045764 L68.727549,22.8027027 C68.727549,22.6480047 68.6663211,22.4996773 68.5569601,22.390281 C68.4475992,22.28092 68.2993072,22.2194797 68.1446446,22.2194797 L57.6431623,22.2194797 C57.4884997,22.2194797 57.3402077,22.28092 57.2308467,22.390281 C57.1214858,22.4996773 57.0599039,22.6480047 57.0599039,22.8027027 L57.0599039,23.8045764 Z M17.2914502,22.2194797 L17.2914502,20.9581127 L19.8141842,20.9581127 L19.8141842,22.2194797 L17.2914502,22.2194797 Z" id="pc管理端_logo_订货宝"></path>
            </g>
        </g>
    </g>
</svg>